<svg xmlns="http://www.w3.org/2000/svg" width="1800" height="1250" viewBox="0 0 1800 1250">
<title>Source residue atlas</title>
<desc>Original analytical traces of construction habits observed in the cited SNES, Genesis, and GBA sprite archives. No source sprite pixels are reproduced.</desc>
<style>
.t{font-family:ui-monospace,monospace;fill:#ece7d8}.h{font-size:25px;fill:#14cddc}.st{font-size:15px;fill:#8f9a98}.ph{font-size:17px}.ps{font-size:12px;fill:#8f9a98}.tag{font-size:13px;fill:#dc9141}.body{stroke:#ece7d8;stroke-width:8;stroke-linecap:square;stroke-linejoin:miter;fill:none}.rule{stroke:#293033}.thin{stroke-width:4}.mini{stroke-width:3}.dark{fill:#080909;stroke:#080909}.cream{fill:#f0e7bd;stroke:#f0e7bd}.none{fill:none}
</style>
<rect width="1800" height="1250" fill="#07090a"/>
<text x="34" y="43" class="t h">SOURCE RESIDUE ATLAS · VISUAL TRACES FROM THE SPRITE ARCHIVES</text>
<text x="34" y="72" class="t st">Analytical traces, not source copies. Each panel records a source-specific construction habit after character geometry is removed.</text>
<line x1="28" y1="96" x2="1772" y2="96" class="rule"/>

<!-- panels -->
<g transform="translate(35 120)"><rect width="525" height="355" fill="#090c0e" stroke="#293033"/><text x="16" y="28" class="t ph">SNES · LAUNCH OCTOPUS</text><text x="16" y="52" class="t ps">pose families · limb identity · hit-state isolation</text><rect x="16" y="74" width="493" height="250" fill="#00c96b"/>
<g transform="translate(65 125)" stroke="#d83d37" fill="#d83d37" stroke-width="7"><circle r="15"/>
<path d="M0 0L-42 -25M0 0L-48 4M0 0L-31 40M0 0L4 48M0 0L34 38M0 0L48 5M0 0L38 -30"/></g>
<g transform="translate(190 130)" stroke="#d83d37" fill="#d83d37" stroke-width="7"><circle r="15"/><path d="M0 0L-25 -42M0 0L-52 -8M0 0L-42 33M0 0L-7 50M0 0L28 42M0 0L50 19M0 0L44 -22"/></g>
<g transform="translate(325 124)" stroke="#d83d37" fill="#d83d37" stroke-width="7"><circle r="15"/><path d="M0 0L-10 -50M0 0L-49 -25M0 0L-48 21M0 0L-18 48M0 0L22 47M0 0L52 18M0 0L42 -32"/></g>
<g transform="translate(125 232)" stroke="#d83d37" fill="#d83d37" stroke-width="7"><circle r="15"/><path d="M0 0L-45 -10M0 0L-38 32M0 0L0 51M0 0L38 34M0 0L52 -5M0 0L18 -47"/></g>
<g transform="translate(285 238)" stroke="#d83d37" fill="#d83d37" stroke-width="7"><circle r="15"/><path d="M0 0L-52 0M0 0L-35 39M0 0L8 50M0 0L45 30M0 0L49 -18M0 0L15 -49"/></g>
<g transform="translate(60 305)" class="cream" stroke-width="4"><circle r="9"/><path d="M0 0L-18 12M0 0L-8 22M0 0L8 22M0 0L18 12"/></g><g transform="translate(145 305)" class="cream" stroke-width="4"><circle r="9"/><path d="M0 0L-20 7M0 0L-11 22M0 0L10 22M0 0L21 5"/></g><g transform="translate(230 305)" class="cream" stroke-width="4"><circle r="9"/><path d="M0 0L-17 14M0 0L0 24M0 0L17 14"/></g><g transform="translate(315 305)" class="cream" stroke-width="4"><circle r="9"/><path d="M0 0L-22 4M0 0L-8 22M0 0L15 19M0 0L22 -2"/></g>
</g>

<g transform="translate(620 120)"><rect width="525" height="355" fill="#090c0e" stroke="#293033"/><text x="16" y="28" class="t ph">GBA · OCTOPUS (CLASSIC)</text><text x="16" y="52" class="t ps">flat silhouette · negative-space channels · temporal arm states</text><rect x="16" y="74" width="493" height="250" fill="#347b93"/>
<g class="dark" stroke-width="12"><g transform="translate(105 160)"><circle r="24"/><path d="M0 0L-47 54M0 0L-24 65M0 0L0 69M0 0L27 64M0 0L52 45"/></g><g transform="translate(260 160)"><circle r="24"/><path d="M0 0L-55 40M0 0L-31 65M0 0L3 70M0 0L35 58M0 0L55 28"/></g><g transform="translate(415 160)"><circle r="24"/><path d="M0 0L-52 28M0 0L-35 59M0 0L-5 71M0 0L30 64M0 0L58 41"/></g></g>
<g class="dark" stroke-width="5"><g transform="translate(55 287)"><circle r="8"/><path d="M0 0L-14 16M0 0L15 14"/></g><g transform="translate(105 287)"><circle r="8"/><path d="M0 0L-18 12M0 0L12 18"/></g><g transform="translate(155 287)"><circle r="8"/><path d="M0 0L-12 19M0 0L18 10"/></g><g transform="translate(205 287)"><circle r="8"/><path d="M0 0L-20 7M0 0L10 20"/></g><g transform="translate(255 287)"><circle r="8"/><path d="M0 0L-10 20M0 0L20 7"/></g><g transform="translate(305 287)"><circle r="8"/><path d="M0 0L-16 16M0 0L16 16"/></g><g transform="translate(355 287)"><circle r="8"/><path d="M0 0L-20 10M0 0L12 20"/></g><g transform="translate(405 287)"><circle r="8"/><path d="M0 0L-12 20M0 0L20 10"/></g></g>
</g>

<g transform="translate(1205 120)"><rect width="525" height="355" fill="#090c0e" stroke="#293033"/><text x="16" y="28" class="t ph">GENESIS · SONIC 2 BADNIKS</text><text x="16" y="52" class="t ps">grouped families · reusable modules · palette strips</text><rect x="16" y="74" width="493" height="250" fill="#49a6b7"/>
<g fill="none" stroke="#176276" stroke-width="2"><rect x="35" y="92" width="135" height="92"/><rect x="188" y="92" width="135" height="92"/><rect x="341" y="92" width="135" height="92"/><rect x="35" y="202" width="135" height="92"/><rect x="188" y="202" width="135" height="92"/><rect x="341" y="202" width="135" height="92"/></g>
<g fill="#183d49"><rect x="47" y="103" width="42" height="8"/><rect x="200" y="103" width="42" height="8"/><rect x="353" y="103" width="42" height="8"/><rect x="47" y="213" width="42" height="8"/><rect x="200" y="213" width="42" height="8"/><rect x="353" y="213" width="42" height="8"/></g>
<g stroke="#f0ead7" stroke-width="4" fill="#e4533b"><circle cx="102" cy="140" r="15"/><line x1="102" y1="140" x2="67" y2="140"/><line x1="102" y1="140" x2="137" y2="140"/><rect x="58" y="133" width="15" height="14" fill="#183d49"/><rect x="130" y="133" width="15" height="14" fill="#183d49"/></g>
<g stroke="#f0ead7" stroke-width="4" fill="#b8d945"><circle cx="255" cy="140" r="15"/><line x1="255" y1="140" x2="220" y2="140"/><line x1="255" y1="140" x2="290" y2="140"/><rect x="211" y="133" width="15" height="14" fill="#183d49"/><rect x="283" y="133" width="15" height="14" fill="#183d49"/></g>
<g stroke="#f0ead7" stroke-width="4" fill="#e9c73f"><circle cx="408" cy="140" r="15"/><line x1="408" y1="140" x2="373" y2="140"/><line x1="408" y1="140" x2="443" y2="140"/><rect x="364" y="133" width="15" height="14" fill="#183d49"/><rect x="436" y="133" width="15" height="14" fill="#183d49"/></g>
<g transform="translate(0 110)"><use href="#none"/></g><g fill="#183d49"><rect x="49" y="166" width="16" height="9"/><rect x="70" y="166" width="16" height="9" fill="#e4533b"/><rect x="91" y="166" width="16" height="9" fill="#e9c73f"/><rect x="112" y="166" width="16" height="9" fill="#f0ead7"/><rect x="202" y="166" width="16" height="9"/><rect x="223" y="166" width="16" height="9" fill="#e4533b"/><rect x="244" y="166" width="16" height="9" fill="#e9c73f"/><rect x="265" y="166" width="16" height="9" fill="#f0ead7"/><rect x="355" y="166" width="16" height="9"/><rect x="376" y="166" width="16" height="9" fill="#e4533b"/><rect x="397" y="166" width="16" height="9" fill="#e9c73f"/><rect x="418" y="166" width="16" height="9" fill="#f0ead7"/></g>
<g transform="translate(0 110)"><use href="#none"/></g><g stroke="#f0ead7" stroke-width="4" fill="#e4533b"><circle cx="102" cy="250" r="15"/><line x1="102" y1="250" x2="67" y2="250"/><line x1="102" y1="250" x2="137" y2="250"/></g><g stroke="#f0ead7" stroke-width="4" fill="#b8d945"><circle cx="255" cy="250" r="15"/><line x1="255" y1="250" x2="220" y2="250"/><line x1="255" y1="250" x2="290" y2="250"/></g><g stroke="#f0ead7" stroke-width="4" fill="#e9c73f"><circle cx="408" cy="250" r="15"/><line x1="408" y1="250" x2="373" y2="250"/><line x1="408" y1="250" x2="443" y2="250"/></g>
</g>

<g transform="translate(35 515)"><rect width="525" height="355" fill="#090c0e" stroke="#293033"/><text x="16" y="28" class="t ph">SNES · SIMCITY BUDGET SHEET</text><text x="16" y="52" class="t ps">parts beside assembled screen · glyph strips · repeated controls</text><rect x="16" y="74" width="493" height="250" fill="#ed00e8"/><rect x="40" y="105" width="270" height="190" fill="#dce3e4" stroke="#18394b" stroke-width="8"/><rect x="55" y="121" width="240" height="26" fill="#6d8998"/><g fill="#e75068"><rect x="72" y="166" width="70" height="8"/><rect x="72" y="190" width="70" height="8"/><rect x="72" y="214" width="70" height="8"/><rect x="72" y="238" width="70" height="8"/></g><g fill="#d59637"><rect x="160" y="166" width="55" height="8"/><rect x="160" y="190" width="55" height="8"/><rect x="160" y="214" width="55" height="8"/><rect x="160" y="238" width="55" height="8"/></g><g fill="#6f3ea4"><path d="M250 174l10-10 10 10z"/><path d="M250 198l10-10 10 10z"/><path d="M250 222l10-10 10 10z"/><path d="M250 246l10-10 10 10z"/></g><g fill="#ede26c"><rect x="335" y="110" width="11" height="20"/><rect x="351" y="110" width="11" height="20"/><rect x="367" y="110" width="11" height="20"/><rect x="383" y="110" width="11" height="20"/><rect x="399" y="110" width="11" height="20"/><rect x="415" y="110" width="11" height="20"/><rect x="431" y="110" width="11" height="20"/></g><g fill="#f3e7c8"><rect x="335" y="155" width="16" height="16"/><rect x="359" y="155" width="16" height="16"/><rect x="383" y="155" width="16" height="16"/><rect x="407" y="155" width="16" height="16"/><rect x="431" y="155" width="16" height="16"/><rect x="335" y="181" width="16" height="16"/><rect x="359" y="181" width="16" height="16"/><rect x="383" y="181" width="16" height="16"/><rect x="407" y="181" width="16" height="16"/><rect x="431" y="181" width="16" height="16"/></g><path d="M430 240l35 12-25 22z" fill="#f3e7c8"/>
</g>

<g transform="translate(620 515)"><rect width="525" height="355" fill="#090c0e" stroke="#293033"/><text x="16" y="28" class="t ph">SNES · SIMCITY MAP / UI</text><text x="16" y="52" class="t ps">planar networks · junctions · overlay panel · no masonry boundary</text><rect x="16" y="74" width="493" height="250" fill="#243d2e"/><g stroke="#cfba6a" stroke-width="12"><path d="M35 145H455M100 88V305M250 105V305M35 260H455"/></g><g fill="#243d2e"><rect x="235" y="137" width="38" height="16"/><rect x="93" y="202" width="14" height="40"/></g><rect x="145" y="175" width="50" height="37" fill="#4f8a60" stroke="#111"/><rect x="285" y="170" width="50" height="37" fill="#4d70a0" stroke="#111"/><rect x="315" y="270" width="50" height="37" fill="#986049" stroke="#111"/><rect x="165" y="276" width="50" height="37" fill="#4f8a60" stroke="#111"/><rect x="340" y="91" width="135" height="50" fill="#c7c2a8" stroke="#252b2b" stroke-width="3"/><rect x="351" y="101" width="24" height="28" fill="#385a70"/><rect x="382" y="101" width="24" height="28" fill="#875342"/><rect x="413" y="101" width="24" height="28" fill="#4b7a4f"/><rect x="444" y="101" width="24" height="28" fill="#b4913f"/>
</g>

<g transform="translate(1205 515)"><rect width="525" height="355" fill="#090c0e" stroke="#293033"/><text x="16" y="28" class="t ph">SNES · SIMCITY DEBUG SCREEN</text><text x="16" y="52" class="t ps">intact graphic window + message + menu on one grid</text><rect x="16" y="74" width="493" height="250" fill="#21479f"/><rect x="42" y="100" width="180" height="95" fill="#10285b" stroke="#f2f2e8" stroke-width="2"/><path d="M102 120a30 30 0 1 0 18 55a24 24 0 1 1-18-55" fill="#f2e5a9"/><path d="M170 124l7 17 18 2-14 12 4 18-15-10-16 10 5-18-14-12 18-2z" fill="#f2e5a9"/><rect x="245" y="105" width="235" height="58" fill="#173a86" stroke="#f2f2e8" stroke-width="2"/><g fill="#f2f2e8"><rect x="260" y="118" width="165" height="6"/><rect x="260" y="132" width="145" height="6"/><rect x="260" y="146" width="125" height="6"/><rect x="75" y="225" width="120" height="6"/><rect x="75" y="244" width="160" height="6"/><rect x="75" y="263" width="195" height="6"/><rect x="75" y="282" width="145" height="6"/><rect x="75" y="301" width="185" height="6"/></g>
</g>

<line x1="28" y1="905" x2="1772" y2="905" class="rule"/><text x="34" y="943" class="t h" style="font-size:19px">WHAT THE SITE ACTUALLY CONTRIBUTED</text>
<text x="40" y="985" class="t tag">LAUNCH OCTOPUS</text><text x="40" y="1008" class="t st">pose-space diversity; independent limbs; palette-isolated state rows</text>
<text x="40" y="1048" class="t tag">G&amp;W OCTOPUS</text><text x="40" y="1071" class="t st">recognition through silhouette and negative space; minimal internal information</text>
<text x="40" y="1111" class="t tag">SONIC 2 BADNIKS</text><text x="40" y="1134" class="t st">asset families grouped by context; reusable modules; explicit palette strips</text>
<text x="930" y="985" class="t tag">SIMCITY BUDGET</text><text x="930" y="1008" class="t st">complete screen beside extracted controls, glyphs, arrows, and pointer modules</text>
<text x="930" y="1048" class="t tag">SIMCITY MAP / UI</text><text x="930" y="1071" class="t st">terrain is a planar network of routes, junctions, zones, overlays, and gaps</text>
<text x="930" y="1111" class="t tag">SIMCITY DEBUG</text><text x="930" y="1134" class="t st">wrongness comes from intact modules coexisting, not random image destruction</text>
</svg>
